# AST/ASF file generated using VICON BodyLanguage
# -----------------------------------------------
:version 1.10
:name VICON
:units
  mass 1.0
  length 0.45
  angle deg
:documentation
   .ast/.asf automatically generated from VICON data using
   VICON BodyBuilder and BodyLanguage model FoxedUp or BRILLIANT.MOD
:root
   order TX TY TZ RX RY RZ
   axis XYZ
   position 0 0 0  
   orientation 0 0 0 
:bonedata
  begin
     id 1 
     name lhipjoint
     direction 0.61886 -0.69539 0.365302 
     length 2.20474 
     axis 0 0 0  XYZ
  end
  begin
     id 2 
     name lfemur
     direction 0.34202 -0.939693 0  
     length 6.65149  
     axis 0 0 20  XYZ
    dof rx ry rz
    limits (-160.0 20.0)
           (-70.0 70.0)
           (-60.0 70.0)
  end
  begin
     id 3 
     name ltibia
     direction 0.34202 -0.939693 0   
     length 6.35814   
     axis 0 0 20   XYZ
    dof rx
    limits (-10.0 170.0)
  end
  begin
     id 4 
     name lfoot
     direction 0.101224 -0.278109 0.955201   
     length 2.18766   
     axis -90 7.62852e-016 20   XYZ
    dof rx rz
    limits (-45.0 90.0)
           (-70.0 20.0)
  end
  begin
     id 5 
     name ltoes
     direction 1.53524e-011 -4.21877e-011 1   
     length 1.09206   
     axis -90 7.62852e-016 20   XYZ
    dof rx
    limits (-90.0 20.0)
  end
  begin
     id 6 
     name rhipjoint
     direction -0.600207 -0.708087 0.371972   
     length 2.1652  
     axis 0 0 0  XYZ 
  end
  begin
     id 7 
     name rfemur
     direction -0.34202 -0.939693 0   
     length 6.54691   
     axis 0 0 -20   XYZ
    dof rx ry rz
    limits (-160.0 20.0)
           (-70.0 70.0)
           (-70.0 60.0)
  end
  begin
     id 8 
     name rtibia
     direction -0.34202 -0.939693 0   
     length 6.37474   
     axis 0 0 -20   XYZ
    dof rx
    limits (-10.0 170.0)
 end
 begin
     id 9 
     name rfoot
     direction -0.111266 -0.3057 0.945604   
     length 2.00903  
     axis -90 -7.62852e-016 -20   XYZ
    dof rx rz
    limits (-45.0 90.0)
           (-20.0 70.0)
  end
  begin
     id 10 
     name rtoes
     direction -1.5362e-011 -4.21913e-011 1   
     length 1.00221   
     axis -90 -7.62852e-016 -20   XYZ
    dof rx
    limits (-90.0 20.0)
  end
  begin
     id 11 
     name lowerback
     direction -0.0224561 0.999731 -0.00577314   
     length 2.10409   
     axis 0 0 0   XYZ
    dof rx ry rz
    limits (-20.0 45.0)
           (-30.0 30.0)
           (-30.0 30.0)
  end
  begin
     id 12 
     name upperback
     direction 0.0213126 0.999185 -0.0342817   
     length 2.09783   
     axis 0 0 0   XYZ
    dof rx ry rz
    limits (-20.0 45.0)
           (-30.0 30.0)
           (-30.0 30.0)
  end
  begin
     id 13 
     name thorax
     direction 0.0312356 0.999036 -0.0308451   
     length 2.09788   
     axis 0 0 0   XYZ
    dof rx ry rz
    limits (-20.0 45.0)
           (-30.0 30.0)
           (-30.0 30.0)
  end
  begin
     id 14 
     name lowerneck
     direction -0.0114419 0.996481 0.0830329   
     length 1.38575   
     axis 0 0 0   XYZ
    dof rx ry rz
    limits (-20.0 45.0)
           (-30.0 30.0)
           (-30.0 30.0)
  end
  begin
     id 15 
     name upperneck
     direction -0.0075675 0.996187 -0.0869092   
     length 1.39401   
     axis 0 0 0   XYZ
    dof rx ry rz
    limits (-20.0 45.0)
           (-30.0 30.0)
           (-30.0 30.0)
  end
  begin
     id 16
     name head
     direction -0.00222073 0.999264 -0.0382974  
     length 1.3964  
     axis 0 0 0   XYZ
    dof rx ry rz
    limits (-20.0 45.0)
           (-30.0 30.0)
           (-30.0 30.0)
  end
  begin
     id 17 
     name lclavicle
     direction 0.965962 0.222138 0.132556  
     length 2.81514  
     axis 0 0 0   XYZ
    dof ry rz
    limits (-20.0 10.0)
           (0.0 20.0)
  end
  begin
     id 18 
     name lhumerus
     direction 1 -4.48972e-011 7.03471e-018   
     length 4.47366   
     axis 180 -30 -90   XYZ
    dof rx ry rz
    limits (-60.0 90.0)
           (-90.0 90.0)
           (-90.0 90.0)
  end
  begin
     id 19
     name lradius
     direction 1 -4.48951e-011 -6.22192e-028   
     length 3.19948   
     axis 180 -30 -90   XYZ
    dof rx
    limits (-10.0 170.0)
  end
  begin
     id 20
     name lwrist
     direction 1 -4.48967e-011 -1.24264e-027   
     length 1.59974   
     axis 1.40095e-015 90 90   XYZ
    dof ry
    limits (-180.0 0.0)
 end
  begin
     id 21 
     name lhand
     direction 1 -4.4897e-011 -2.48528e-027   
     length 0.492667   
     axis 1.58582e-015 90 90   XYZ
    dof rx rz
    limits (-90.0 90.0)
           (-45.0 45.0)
  end
  begin
     id 22 
     name lfingers
     direction 1 -4.48996e-011 -4.97056e-027   
     length 0.397201   
     axis 3.17164e-015 90 90   XYZ
    dof rx
    limits (0.0 90.0)
  end
  begin
     id 23
     name lthumb
     direction 0.707107 -6.34981e-011 0.707107   
     length 0.570303   
     axis -90 45 2.85299e-015   XYZ
    dof rx rz
    limits (-45.0 45.0)
           (-45.0 45.0)
  end
  begin
     id 24 
     name rclavicle
     direction -0.961164 0.229034 0.153972   
     length 3.09348  
     axis 0 0 0   XYZ 
    dof ry rz
    limits (-10.0 20.0)
           (-20.0 0.0)
  end
  begin
     id 25 
     name rhumerus
     direction -1 -4.48971e-011 -9.06263e-028  
     length 4.3269   
     axis 180 30 90   XYZ
    dof rx ry rz
    limits (-90.0 60.0)
           (-90.0 90.0)
           (-90.0 90.0)
  end
  begin
     id 26 
     name rradius
     direction -1 -4.48953e-011 1.44659e-027   
     length 3.1896   
     axis 180 30 90   XYZ
    dof rx
    limits (-10.0 170.0)
  end
  begin
     id 27 
     name rwrist
     direction -1 -4.48988e-011 -1.24264e-027   
     length 1.5948   
     axis 1.40095e-015 -90 -90   XYZ
    dof ry
    limits (-180.0 0.0)
  end
  begin
     id 28
     name rhand
     direction -1 -4.49033e-011 -2.48528e-027   
     length 0.464496   
     axis 1.58582e-015 -90 -90   XYZ
    dof rx rz
    limits (-90.0 90.0)
           (-45.0 45.0)
  end
  begin
     id 29
     name rfingers
     direction -1 -4.48905e-011 -4.97056e-027   
     length 0.374489   
     axis 3.17164e-015 -90 -90   XYZ
    dof rx
    limits (0.0 90.0)
  end
  begin
     id 30
     name rthumb
     direction -0.707107 -6.34909e-011 0.707107   
     length 0.537693   
     axis -90 -45 -2.85299e-015   XYZ
    dof rx rz
    limits (-45.0 45.0)
           (-45.0 45.0)
  end
:hierarchy
  begin
    root lhipjoint rhipjoint lowerback
    lhipjoint lfemur
    lfemur ltibia
    ltibia lfoot
    lfoot ltoes
    rhipjoint rfemur
    rfemur rtibia
    rtibia rfoot
    rfoot rtoes
    lowerback upperback
    upperback thorax
    thorax lowerneck lclavicle rclavicle
    lowerneck upperneck
    upperneck head
    lclavicle lhumerus
    lhumerus lradius
    lradius lwrist
    lwrist lhand lthumb
    lhand lfingers
    rclavicle rhumerus
    rhumerus rradius
    rradius rwrist
    rwrist rhand rthumb
    rhand rfingers
  end

#!OML:ASF G:\acrobat\cartwheel_test 2\Patient 1\Session 2\acrobat4.ASF
:FULLY-SPECIFIED
:DEGREES
4032
root 8.6919 25.9046 29.8781 28.2345 181.179 1084.64
lowerback 17.9714 -4.18475 -20.7709
upperback 5.18894 -12.099 15.3778
thorax 3.17716 -9.16587 33.5645
lowerneck -24.4728 4.61131 -22.6475
upperneck 20.3452 16.3776 -3.8646
head 9.40263 5.6061 4.3536
rclavicle -1.48293e-013 8.46823e-014
rhumerus 32.368 54.8119 -14.1714
rradius 46.4634
rwrist 348.815
rhand -4.14565 -385.724
rfingers 7.12502
rthumb 21.6141 -54.5375
lclavicle -1.48293e-013 8.46823e-014
lhumerus 10.5851 14.8602 62.6709
lradius 74.1868
lwrist 19.4428
lhand -33.627 -4.03282
lfingers 7.12502
lthumb -6.81953 -1414.16
rfemur -27.6475 -0.723385 31.265
rtibia 49.7244
rfoot -16.2783 -3.77534
rtoes -23.922
lfemur -768.95 7.79353 -745.306
ltibia 54.6538
lfoot 147.407 -169.115
ltoes -1.67188
4033
root 8.7685 25.9131 29.7864 27.6341 181.628 1084.51
lowerback 16.5795 -4.42356 -20.7343
upperback 4.88014 -12.1926 15.5568
thorax 3.71986 -9.29226 33.6163
lowerneck -24.82 4.16905 -23.2231
upperneck 20.915 16.2422 -3.74174
head 9.65378 5.45961 4.50595
rclavicle 1.00585e-013 -3.77691e-015
rhumerus 28.0077 55.8335 -16.7687
rradius 45.1875
rwrist 350.266
rhand -5.25656 -386.062
rfingers 7.12502
rthumb 20.5469 -54.9947
lclavicle 1.00585e-013 -3.77691e-015
lhumerus 9.91514 15.4854 62.2274
lradius 77.1011
lwrist 19.0691
lhand -33.2787 -4.46732
lfingers 7.12502
lthumb -6.48325 -1414.59
rfemur -25.9485 -0.976567 31.5926
rtibia 48.4445
rfoot -16.0614 -4.17988
rtoes -23.0414
lfemur -767.716 6.93664 -745.141
ltibia 54.2353
lfoot 147.227 -167.799
ltoes -1.54782
4034
root 8.83789 25.9124 29.691 27.2984 181.671 1084.19
lowerback 14.9261 -4.5627 -20.88
upperback 4.61481 -12.0408 15.5526
thorax 4.30091 -9.24541 33.4234
lowerneck -25.1279 3.65903 -23.5765
upperneck 21.4758 15.9159 -3.60707
head 9.92666 5.23903 4.61237
rclavicle -1.26924e-013 1.31869e-013
rhumerus 22.7129 56.2501 -20.4696
rradius 43.7647
rwrist 351.567
rhand -6.3274 -386.745
rfingers 7.12502
rthumb 19.5176 -55.7855
lclavicle -1.26924e-013 1.31869e-013
lhumerus 9.6693 15.8253 61.5357
lradius 79.8224
lwrist 19.5369
lhand -33.4278 -4.2417
lfingers 7.12502
lthumb -6.6272 -1414.37
rfemur -24.6555 -1.40361 31.6146
rtibia 47.455
rfoot -15.8459 -4.30473
rtoes -23.9295
lfemur -766.619 5.99556 -745.274
ltibia 53.5436
lfoot 147.029 -166.296
ltoes -2.8269
4035
root 8.90181 25.9029 29.6044 27.1358 181.585 1083.87
lowerback 13.3151 -4.59313 -20.9563
upperback 4.41542 -11.6685 15.4373
thorax 4.74546 -9.01845 32.9973
lowerneck -25.5251 3.05294 -23.6902
upperneck 22.0851 15.3386 -3.32563
head 10.2545 4.92048 4.71568
rclavicle 8.64713e-015 -7.25564e-015
rhumerus 16.7077 55.9316 -25.0892
rradius 42.306
rwrist 352.321
rhand -7.17744 -387.137
rfingers 7.12502
rthumb 18.7002 -56.2585
lclavicle 8.64713e-015 -7.25564e-015
lhumerus 9.78282 15.9787 60.5763
lradius 82.2777
lwrist 20.5709
lhand -33.4649 -3.88587
lfingers 7.12502
lthumb -6.66299 -1414.01
rfemur -23.738 -1.79738 31.4824
rtibia 46.7302
rfoot -15.7011 -3.95183
rtoes -24.4082
lfemur -765.637 4.7342 -745.275
ltibia 52.699
lfoot 146.454 -165.503
ltoes -3.52549
4036
root 8.95842 25.8851 29.5175 27.0119 181.623 1083.64
lowerback 11.8608 -4.57948 -20.7152
upperback 4.25864 -11.1911 15.2708
thorax 5.00168 -8.66718 32.2769
lowerneck -25.8724 2.44837 -23.6035
upperneck 22.7879 14.615 -2.89152
head 10.618 4.55485 4.82872
rclavicle -4.69132e-014 2.48481e-014
rhumerus 10.3342 54.613 -30.4367
rradius 40.7185
rwrist 353.01
rhand -6.97355 -386.853
rfingers 7.12502
rthumb 18.8963 -55.9556
lclavicle -4.69132e-014 2.48481e-014
lhumerus 10.0211 16.0402 59.4944
lradius 84.5059
lwrist 21.4535
lhand -33.2355 -3.87136
lfingers 7.12502
lthumb -6.44156 -1413.99
rfemur -23.011 -2.13787 31.2847
rtibia 46.2817
rfoot -15.6129 -2.76405
rtoes -22.7951
lfemur -764.613 3.00076 -744.942
ltibia 51.8853
lfoot 145.083 -165.524
ltoes -1.543
4037
root 9.00712 25.8539 29.429 26.9178 181.745 1083.45
lowerback 10.6887 -4.56518 -20.3793
upperback 4.01897 -10.7868 15.1815
thorax 5.05873 -8.3281 31.6904
lowerneck -26.1634 1.91361 -23.6012
upperneck 23.5178 14.0285 -2.51978
head 10.9795 4.24203 4.94432
rclavicle -7.67309e-014 6.55989e-014
rhumerus 4.66318 52.8157 -35.2404
rradius 39.1088
rwrist 353.855
rhand -7.32598 -386.171
rfingers 7.12502
rthumb 18.5573 -55.3062
lclavicle -7.67309e-014 6.55989e-014
lhumerus 10.1027 16.3896 58.5575
lradius 86.4946
lwrist 21.8205
lhand -33.1589 -4.10342
lfingers 7.12502
lthumb -6.36759 -1414.22
rfemur -22.4995 -2.90574 31.0396
rtibia 46.1683
rfoot -15.2902 -0.749854
rtoes -21.0383
lfemur -763.608 0.846665 -744.332
ltibia 51.2541
lfoot 143.935 -164.98
ltoes -0.40471
4038
root 9.0497 25.8189 29.3439 26.8151 181.933 1083.41
lowerback 9.89681 -4.52535 -20.0301
upperback 3.75123 -10.5257 15.2888
thorax 5.00342 -8.11336 31.5123
lowerneck -26.6642 1.39187 -23.9603
upperneck 24.2217 13.6947 -2.20882
head 11.3439 4.00903 5.12283
rclavicle 2.5842e-014 -1.15295e-014
rhumerus 0.273552 51.0228 -38.8204
rradius 37.7169
rwrist 354.501
rhand -7.85385 -386.586
rfingers 7.12502
rthumb 18.0495 -55.7682
lclavicle 2.5842e-014 -1.15295e-014
lhumerus 9.98342 17.3232 57.8102
lradius 88.3277
lwrist 21.7011
lhand -32.9754 -4.06025
lfingers 7.12502
lthumb -6.1905 -1414.17
rfemur -22.2682 -3.96751 30.8343
rtibia 46.4983
rfoot -14.5415 1.96825
rtoes -19.6142
lfemur -762.755 -1.01433 -743.549
ltibia 50.8444
lfoot 143.346 -164.463
ltoes -0.540624
4039
root 9.09525 25.7949 29.2676 26.7936 182.139 1083.35
lowerback 9.33021 -4.4312 -19.8505
upperback 3.57624 -10.3278 15.4956
thorax 5.01826 -8.0131 31.6827
lowerneck -27.606 0.807776 -24.5321
upperneck 24.9392 13.5131 -1.90959
head 11.7798 3.80545 5.36238
rclavicle 1.11319e-013 -4.29375e-014
rhumerus -2.83981 49.0687 -41.3336
rradius 36.5159
rwrist 355.278
rhand -8.06057 -387.406
rfingers 7.12502
rthumb 17.8506 -56.6063
lclavicle 1.11319e-013 -4.29375e-014
lhumerus 9.71748 18.6616 57.109
lradius 90.2481
lwrist 21.3873
lhand -32.3131 -3.46569
lfingers 7.12502
lthumb -5.55104 -1413.56
rfemur -22.5706 -4.84965 30.5087
rtibia 47.4325
rfoot -13.1087 4.93996
rtoes -17.4958
lfemur -762.213 -1.87278 -743.006
ltibia 50.5679
lfoot 142.794 -164.82
ltoes 0.215077
4040
root 9.14993 25.7805 29.2023 26.8868 182.238 1083.03
lowerback 8.93116 -4.26444 -20.0873
upperback 3.49874 -10.0661 15.6003
thorax 5.05957 -7.90204 32.0437
lowerneck -28.6811 0.233027 -24.8114
upperneck 25.632 13.321 -1.78268
head 12.2715 3.58873 5.5033
rclavicle -1.41535e-013 4.77083e-015
rhumerus -5.14781 46.7917 -43.2942
rradius 35.3725
rwrist 356.581
rhand -8.48531 -387.438
rfingers 7.12502
rthumb 17.4418 -56.6756
lclavicle -1.41535e-013 4.77083e-015
lhumerus 9.455 19.999 56.4719
lradius 92.2786
lwrist 21.3183
lhand -31.2551 -2.97064
lfingers 7.12502
lthumb -4.52949 -1413.04
rfemur -23.5101 -5.5735 29.8157
rtibia 49.103
rfoot -10.9352 7.73342
rtoes -15.9624
lfemur -761.891 -1.94354 -742.989
ltibia 50.3063
lfoot 142.502 -165.25
ltoes 0.493755
4041
root 9.20283 25.773 29.1369 26.8987 182.158 1082.51
lowerback 8.83062 -4.03079 -20.4591
upperback 3.46796 -9.67219 15.5012
thorax 4.86374 -7.63335 32.2039
lowerneck -29.2373 -0.152936 -24.604
upperneck 26.0457 13.0253 -1.89471
head 12.6124 3.38569 5.43978
rclavicle 2.14687e-014 -4.21423e-014
rhumerus -7.41068 44.5548 -45.3251
rradius 34.4156
rwrist 357.753
rhand -9.03757 -387.574
rfingers 7.12502
rthumb 16.9103 -56.8573
lclavicle 2.14687e-014 -4.21423e-014
lhumerus 9.24414 20.9771 55.7526
lradius 94.1859
lwrist 21.9686
lhand -30.4729 -3.02322
lfingers 7.12502
lthumb -3.77413 -1413.08
rfemur -24.8221 -6.17425 28.769
rtibia 51.5473
rfoot -8.18809 10.3435
rtoes -15.6434
lfemur -761.426 -1.77159 -743.368
ltibia 49.9696
lfoot 142.71 -165.146
ltoes -0.960543
